<svg width="80" height="30" viewBox="0 0 80 30" fill="none" xmlns="http://www.w3.org/2000/svg">
<path d="M32.8807 29V21.7273H37.2699V22.5085H33.7614V24.9659H37.0426V25.7472H33.7614V28.2188H37.3267V29H32.8807ZM44.7095 24H43.8288C43.7768 23.7467 43.6856 23.5241 43.5554 23.3324C43.4276 23.1406 43.2713 22.9796 43.0866 22.8494C42.9044 22.7169 42.7019 22.6174 42.4794 22.5511C42.2569 22.4848 42.0249 22.4517 41.7834 22.4517C41.343 22.4517 40.9441 22.563 40.5866 22.7855C40.2315 23.008 39.9486 23.3359 39.7379 23.7692C39.5296 24.2024 39.4254 24.7339 39.4254 25.3636C39.4254 25.9934 39.5296 26.5249 39.7379 26.9581C39.9486 27.3913 40.2315 27.7192 40.5866 27.9418C40.9441 28.1643 41.343 28.2756 41.7834 28.2756C42.0249 28.2756 42.2569 28.2424 42.4794 28.1761C42.7019 28.1098 42.9044 28.0116 43.0866 27.8814C43.2713 27.7488 43.4276 27.5866 43.5554 27.3949C43.6856 27.2008 43.7768 26.9782 43.8288 26.7273H44.7095C44.6432 27.099 44.5225 27.4316 44.3473 27.7251C44.1721 28.0187 43.9543 28.2685 43.6939 28.4744C43.4335 28.678 43.1411 28.8331 42.8168 28.9396C42.4948 29.0462 42.1503 29.0994 41.7834 29.0994C41.1631 29.0994 40.6115 28.9479 40.1286 28.6449C39.6456 28.3419 39.2656 27.911 38.9886 27.3523C38.7116 26.7936 38.5732 26.1307 38.5732 25.3636C38.5732 24.5966 38.7116 23.9337 38.9886 23.375C39.2656 22.8163 39.6456 22.3854 40.1286 22.0824C40.6115 21.7794 41.1631 21.6278 41.7834 21.6278C42.1503 21.6278 42.4948 21.6811 42.8168 21.7876C43.1411 21.8942 43.4335 22.0504 43.6939 22.2564C43.9543 22.46 44.1721 22.7086 44.3473 23.0021C44.5225 23.2933 44.6432 23.6259 44.7095 24ZM46.1326 29V21.7273H47.0133V24.9659H50.8912V21.7273H51.7718V29H50.8912V25.7472H47.0133V29H46.1326Z" fill="url(#paint0_linear_0_1)"/>
<line x1="1" y1="1" x2="80" y2="1" stroke="url(#paint1_linear_0_1)" stroke-width="2"/>
<rect x="15" y="6" width="2" height="14" fill="#404242"/>
<rect x="25" width="2" height="29" fill="url(#paint2_linear_0_1)"/>
<rect width="1" height="9" transform="matrix(4.37114e-08 1 1 -4.37114e-08 16 12)" fill="#404242"/>
<path d="M12.4659 10H10.7045C10.6004 9.49337 10.4181 9.0483 10.1577 8.66477C9.90199 8.28125 9.58949 7.95928 9.22017 7.69886C8.85559 7.43371 8.45076 7.23485 8.00568 7.10227C7.56061 6.9697 7.09659 6.90341 6.61364 6.90341C5.73295 6.90341 4.93513 7.12595 4.22017 7.57102C3.50994 8.0161 2.94413 8.67188 2.52273 9.53835C2.10606 10.4048 1.89773 11.4678 1.89773 12.7273C1.89773 13.9867 2.10606 15.0497 2.52273 15.9162C2.94413 16.7827 3.50994 17.4384 4.22017 17.8835C4.93513 18.3286 5.73295 18.5511 6.61364 18.5511C7.09659 18.5511 7.56061 18.4848 8.00568 18.3523C8.45076 18.2197 8.85559 18.0232 9.22017 17.7628C9.58949 17.4976 9.90199 17.1733 10.1577 16.7898C10.4181 16.4015 10.6004 15.9564 10.7045 15.4545H12.4659C12.3333 16.1979 12.0919 16.8632 11.7415 17.4503C11.3911 18.0374 10.9555 18.5369 10.4347 18.9489C9.91383 19.3561 9.32907 19.6662 8.6804 19.8793C8.03646 20.0923 7.34754 20.1989 6.61364 20.1989C5.37311 20.1989 4.26989 19.8958 3.30398 19.2898C2.33807 18.6837 1.57813 17.822 1.02415 16.7045C0.470171 15.5871 0.193182 14.2614 0.193182 12.7273C0.193182 11.1932 0.470171 9.86742 1.02415 8.75C1.57813 7.63258 2.33807 6.77083 3.30398 6.16477C4.26989 5.55871 5.37311 5.25568 6.61364 5.25568C7.34754 5.25568 8.03646 5.36222 8.6804 5.57528C9.32907 5.78835 9.91383 6.10085 10.4347 6.51278C10.9555 6.91998 11.3911 7.41714 11.7415 8.00426C12.0919 8.58665 12.3333 9.25189 12.4659 10Z" fill="#404242"/>
<path d="M31.358 20H29.5114L34.8523 5.45455H36.6705L42.0114 20H40.1648L35.8182 7.75568H35.7045L31.358 20ZM32.0398 14.3182H39.483V15.8807H32.0398V14.3182ZM41.5426 5.45455H43.5597L47.5938 12.2443H47.7642L51.7983 5.45455H53.8153L48.5597 14.0057V20H46.7983V14.0057L41.5426 5.45455ZM55.2056 20H53.359L58.6999 5.45455H60.5181L65.859 20H64.0124L59.6658 7.75568H59.5522L55.2056 20ZM55.8874 14.3182H63.3306V15.8807H55.8874V14.3182ZM79.6587 5.45455V20H77.9542L70.0281 8.57955H69.886V20H68.1246V5.45455H69.8292L77.7837 16.9034H77.9258V5.45455H79.6587Z" fill="#404242"/>
<defs>
<linearGradient id="paint0_linear_0_1" x1="53" y1="25.1018" x2="32" y2="24.8982" gradientUnits="userSpaceOnUse">
<stop stop-color="#0C8599"/>
<stop offset="1" stop-color="#22B8CF"/>
</linearGradient>
<linearGradient id="paint1_linear_0_1" x1="79.9995" y1="2.31138" x2="1.00045" y2="2.68862" gradientUnits="userSpaceOnUse">
<stop stop-color="#0B7285"/>
<stop offset="1" stop-color="#22B8CF"/>
</linearGradient>
<linearGradient id="paint2_linear_0_1" x1="25" y1="14.4622" x2="27" y2="14.5378" gradientUnits="userSpaceOnUse">
<stop stop-color="#25AEC3"/>
<stop offset="0.923077" stop-color="#209CAF"/>
</linearGradient>
</defs>
</svg>
